<svg width="16" height="17" viewBox="0 0 16 17" fill="none" xmlns="http://www.w3.org/2000/svg">
<g id="circle-dollar-to-slot" clip-path="url(#clip0_222_2289)">
<path id="Primary" d="M10.2094 12.8383C9.51875 13.0883 8.775 13.2227 8 13.2227C7.225 13.2227 6.47813 13.0852 5.79063 12.8383L5.76562 12.8289C4.82812 12.4852 3.99062 11.932 3.30938 11.2227C2.1875 10.0539 1.5 8.46953 1.5 6.72266C1.5 3.13203 4.40938 0.222656 8 0.222656C11.5906 0.222656 14.5 3.13203 14.5 6.72266C14.5 8.46953 13.8125 10.0539 12.6906 11.2227C12.6594 11.2539 12.6281 11.2883 12.5969 11.3195C11.9281 11.9883 11.1156 12.5102 10.2125 12.8383H10.2094ZM8 3.09453C7.65312 3.09453 7.37187 3.37578 7.37187 3.72266V3.91016C7.19687 3.94766 7.03125 4.00078 6.875 4.06953C6.40625 4.28203 6.00312 4.67578 5.90312 5.24766C5.84687 5.56641 5.87813 5.87266 6.00938 6.15391C6.14062 6.42891 6.34375 6.62266 6.55 6.76328C6.9125 7.01016 7.39062 7.15391 7.75625 7.26328L7.825 7.28516C8.25937 7.41641 8.55625 7.51641 8.74063 7.65078C8.81875 7.70703 8.84688 7.75078 8.85625 7.77578C8.86562 7.80078 8.88438 7.85703 8.8625 7.98516C8.84375 8.09453 8.78438 8.18516 8.6125 8.26016C8.42188 8.34141 8.1125 8.38203 7.7125 8.31953C7.525 8.28828 7.19063 8.17578 6.89375 8.07266C6.825 8.05078 6.75938 8.02578 6.69375 8.00703C6.36562 7.89766 6.0125 8.07578 5.90312 8.40391C5.79375 8.73203 5.97188 9.08516 6.3 9.19453C6.3375 9.20703 6.38438 9.22266 6.4375 9.24141C6.68437 9.32578 7.07188 9.45703 7.36875 9.52578V9.72578C7.36875 10.0727 7.65 10.3539 7.99687 10.3539C8.34375 10.3539 8.625 10.0727 8.625 9.72578V9.55391C8.79062 9.52266 8.95312 9.47578 9.10625 9.41016C9.59688 9.20078 9.99375 8.79453 10.0938 8.20078C10.15 7.87578 10.125 7.56641 10 7.28203C9.87813 7.00078 9.68125 6.79453 9.47188 6.64141C9.09062 6.36641 8.5875 6.21328 8.20938 6.09766L8.18437 6.09141C7.74062 5.95703 7.44063 5.86328 7.25 5.73516C7.16875 5.67891 7.14375 5.64141 7.1375 5.62578C7.13125 5.61641 7.11562 5.57578 7.13438 5.46953C7.14375 5.41016 7.19375 5.30703 7.39062 5.21641C7.59062 5.12578 7.90313 5.07578 8.28438 5.13516C8.41875 5.15703 8.84375 5.23828 8.9625 5.26953C9.29688 5.35703 9.6375 5.16016 9.72812 4.82578C9.81875 4.49141 9.61875 4.15078 9.28438 4.06016C9.14688 4.02266 8.83438 3.96016 8.62813 3.92266V3.72578C8.62813 3.37891 8.34688 3.09766 8 3.09766V3.09453ZM1.5 11.2227H2C2.60938 12.032 3.375 12.7133 4.25625 13.2227H2V14.2227H8H14V13.2227H11.7437C12.625 12.7133 13.3938 12.032 14 11.2227H14.5C15.3281 11.2227 16 11.8945 16 12.7227V14.7227C16 15.5508 15.3281 16.2227 14.5 16.2227H1.5C0.671875 16.2227 0 15.5508 0 14.7227V12.7227C0 11.8945 0.671875 11.2227 1.5 11.2227Z" fill="white"/>
</g>
<defs>
<clipPath id="clip0_222_2289">
<rect width="16" height="16" fill="white" transform="translate(0 0.222656)"/>
</clipPath>
</defs>
</svg>
