<svg width="23" height="21" viewBox="0 0 23 21" fill="none" xmlns="http://www.w3.org/2000/svg">
<g id="file-pen" clip-path="url(#clip0_224_2325)">
<path id="Primary" d="M0 2.91797C0 1.53906 1.12109 0.417969 2.5 0.417969H8.75V5.41797C8.75 6.10938 9.30859 6.66797 10 6.66797H15V11.5781L11.6094 14.9688C11.207 15.3711 10.9258 15.8711 10.7891 16.4219L10.0586 19.3477C9.96875 19.707 9.98828 20.082 10.1094 20.4219L2.5 20.418C1.12109 20.418 0 19.2969 0 17.918V2.91797ZM15 5.41797H10V0.417969L15 5.41797ZM21.4766 9.625L22.0391 10.1875C22.6484 10.7969 22.6484 11.7852 22.0391 12.3984L20.8906 13.5469L18.1172 10.7734L19.2656 9.625C19.875 9.01562 20.8633 9.01562 21.4766 9.625ZM12.1836 16.707L17.2305 11.6602L20.0039 14.4336L14.957 19.4766C14.7969 19.6367 14.5977 19.75 14.375 19.8047L12.0273 20.3906C11.8125 20.4453 11.5898 20.3828 11.4336 20.2266C11.2773 20.0703 11.2148 19.8477 11.2695 19.6328L11.8555 17.2852C11.9102 17.0664 12.0234 16.8633 12.1836 16.7031V16.707Z" fill="white"/>
</g>
<defs>
<clipPath id="clip0_224_2325">
<rect width="22.5" height="20" fill="white" transform="translate(0 0.417969)"/>
</clipPath>
</defs>
</svg>
