<svg width="18" height="16" viewBox="0 0 18 16" fill="none" xmlns="http://www.w3.org/2000/svg">
<g id="layer-group">
<path id="Primary" d="M8.68505 1.06951L8.68584 1.06914C8.88492 0.976952 9.11508 0.976952 9.31416 1.06914L9.31495 1.06951L15.6559 3.99922L9.31495 6.92893L9.31416 6.9293C9.11508 7.02149 8.88492 7.02149 8.68584 6.9293L8.68505 6.92893L2.34411 3.99922L8.68505 1.06951ZM14.9029 7.65084L15.6561 7.99913L9.31495 10.9289L9.31416 10.9293C9.11508 11.0215 8.88492 11.0215 8.68584 10.9293L8.68505 10.9289L2.34392 7.99913L3.09713 7.65084L7.42759 9.65082L7.42782 9.65093C8.42496 10.1111 9.57504 10.1111 10.5722 9.65093L10.5724 9.65082L14.9029 7.65084ZM2.34392 11.9991L3.09713 11.6508L7.42759 13.6508L7.42782 13.6509C8.42496 14.1111 9.57504 14.1111 10.5722 13.6509L10.5724 13.6508L14.9029 11.6508L15.6561 11.9991L9.31495 14.9289L9.31416 14.9293C9.11508 15.0215 8.88492 15.0215 8.68584 14.9293L8.68505 14.9289L2.34392 11.9991Z" fill="white" stroke="#565969" stroke-width="2"/>
</g>
</svg>
