<svg width="64" height="64" viewBox="0 0 64 64" fill="none" xmlns="http://www.w3.org/2000/svg">
<g id="plane-up" clip-path="url(#clip0_224_2391)">
<path id="Primary" d="M24 11.7125C24 7.4375 27.625 0 32 0C36.5 0 40 7.4375 40 11.7125V20L62.225 34.8125C63.3375 35.55 64 36.8 64 38.1375V45.225C64 46.5875 62.6625 47.55 61.3625 47.125L40 40V50L47.2 55.4C47.7 55.775 48 56.375 48 57V62.25C48 63.225 47.2125 64 46.25 64C46.0875 64 45.925 63.975 45.7625 63.9375L32 60L18.2375 63.9375C18.075 63.9875 17.9125 64 17.75 64C16.775 64 16 63.2125 16 62.25V57C16 56.375 16.3 55.775 16.8 55.4L24 50V40L2.6375 47.125C1.3375 47.55 0 46.5875 0 45.225V38.1375C0 36.8 0.6625 35.55 1.775 34.8125L24 20V11.7125Z" fill="white"/>
</g>
<defs>
<clipPath id="clip0_224_2391">
<rect width="64" height="64" fill="white"/>
</clipPath>
</defs>
</svg>
