<svg width="20" height="16" viewBox="0 0 20 16" fill="none" xmlns="http://www.w3.org/2000/svg">
<path id="Primary" d="M2.5 3.5V3V1.5C2.5 0.948017 2.94802 0.5 3.5 0.5H11.5C12.052 0.5 12.5 0.948017 12.5 1.5V3V3.5H13H14.5844C14.9842 3.5 15.366 3.65751 15.6464 3.93793L18.0621 6.35355C18.3425 6.63397 18.5 7.01583 18.5 7.41563V8V9V11V11.5H19C19.277 11.5 19.5 11.723 19.5 12C19.5 12.277 19.277 12.5 19 12.5H18H17.5V13C17.5 14.3801 16.3801 15.5 15 15.5C13.6199 15.5 12.5 14.3801 12.5 13V12.5H12H8H7.5V13C7.5 14.3801 6.38011 15.5 5 15.5C3.61989 15.5 2.5 14.3801 2.5 13V9.5H6.5C7.05114 9.5 7.5 9.05114 7.5 8.5C7.5 7.94886 7.05114 7.5 6.5 7.5H7.5C8.05114 7.5 8.5 7.05114 8.5 6.5C8.5 5.94886 8.05114 5.5 7.5 5.5H8.5C9.05114 5.5 9.5 5.05114 9.5 4.5C9.5 3.94886 9.05114 3.5 8.5 3.5H2.5ZM17.5 7.41563V7.20852L17.3536 7.06207L14.9379 4.64645L14.7915 4.5H14.5844H13H12.5V5V8V8.5H13H17H17.5V8V7.41563ZM6.41421 11.5858C6.03914 11.2107 5.53043 11 5 11C4.46957 11 3.96086 11.2107 3.58579 11.5858C3.21071 11.9609 3 12.4696 3 13C3 13.5304 3.21071 14.0391 3.58579 14.4142C3.96086 14.7893 4.46957 15 5 15C5.53043 15 6.03914 14.7893 6.41421 14.4142C6.78929 14.0391 7 13.5304 7 13C7 12.4696 6.78929 11.9609 6.41421 11.5858ZM13.5858 11.5858C13.2107 11.9609 13 12.4696 13 13C13 13.5304 13.2107 14.0391 13.5858 14.4142C13.9609 14.7893 14.4696 15 15 15C15.5304 15 16.0391 14.7893 16.4142 14.4142C16.7893 14.0391 17 13.5304 17 13C17 12.4696 16.7893 11.9609 16.4142 11.5858C16.0391 11.2107 15.5304 11 15 11C14.4696 11 13.9609 11.2107 13.5858 11.5858Z" fill="white" stroke="#565969"/>
</svg>
