<svg width="20" height="16" viewBox="0 0 20 16" fill="none" xmlns="http://www.w3.org/2000/svg">
<g id="scale-unbalanced-flip" clip-path="url(#clip0_222_2269)">
<path id="Primary" d="M3.79125 1.45544C3.56268 1.35053 3.44531 1.08894 3.52746 0.842489C3.61471 0.580723 3.89629 0.439428 4.1605 0.527425C4.16054 0.527439 4.16059 0.527453 4.16063 0.527467L7.69175 1.70555L8.07675 1.834L8.28162 1.48364C8.62625 0.894261 9.26799 0.5 9.99999 0.5C11.1051 0.5 12 1.39489 12 2.5C12 2.57152 11.9952 2.64413 11.987 2.72355L11.9458 3.12241L12.3261 3.2493L16.1574 4.52743L16.1575 4.52747C16.4193 4.61474 16.5606 4.89639 16.4725 5.16064C16.3853 5.42237 16.1038 5.56367 15.8396 5.47573L3.79125 1.45544ZM3.79125 1.45544L3.84259 1.47257L7.77697 2.78507L8.01813 2.86552L8.09521 3.10777C8.26988 3.65673 8.67465 4.10222 9.20063 4.33265L9.49999 4.4638V4.79063V14V14.5H8.99999H3.99999C3.72301 14.5 3.49999 14.723 3.49999 15C3.49999 15.277 3.72301 15.5 3.99999 15.5H9.99999C10.277 15.5 10.5 15.277 10.5 15V4.79375V4.47075L10.7944 4.33796C10.9271 4.27813 11.0485 4.20949 11.1602 4.13002L11.3673 3.98277L11.6083 4.06323L15.8394 5.47566L3.79125 1.45544ZM6.26562 8.99818L6.69446 8.74819L4.43196 4.86694L3.99999 4.12592L3.56803 4.86694L1.30553 8.74819L0.867277 9.5H1.73749H5.97521H6.26249H6.26562V9V8.99818ZM3.67876 3.68319L3.67912 3.68256C3.74448 3.57015 3.86594 3.5 3.99999 3.5C4.13101 3.5 4.25482 3.57079 4.32179 3.68416C4.32191 3.68436 4.32203 3.68456 4.32215 3.68476L7.29591 8.78264C7.29601 8.7828 7.2961 8.78297 7.2962 8.78314C7.29621 8.78315 7.29622 8.78317 7.29623 8.78319C7.44369 9.03691 7.48992 9.25296 7.45109 9.41855C7.18605 10.5173 5.82678 11.5 3.99999 11.5C2.1732 11.5 0.813932 10.5173 0.548892 9.41854C0.510072 9.25295 0.556303 9.0369 0.703757 8.78319C0.703864 8.783 0.70397 8.78282 0.704077 8.78264L3.67876 3.68319ZM16.3943 8.86668L15.9622 8.12643L15.5305 8.86694L13.268 12.7482L12.8298 13.5H13.7H18.2281H19.0989L18.6599 12.7479L16.3943 8.86668ZM15.6413 7.68319L15.6416 7.68256C15.707 7.57015 15.8284 7.5 15.9625 7.5C16.0936 7.5 16.2174 7.57085 16.2844 7.68429C16.2845 7.68445 16.2846 7.6846 16.2847 7.68476L19.2584 12.7826C19.4061 13.0366 19.4524 13.2528 19.4136 13.4185C19.1486 14.5173 17.7893 15.5 15.9625 15.5C14.1357 15.5 12.7764 14.5173 12.5114 13.4186C12.4726 13.2529 12.5188 13.0367 12.6664 12.7829C12.6665 12.7828 12.6665 12.7827 12.6666 12.7826L15.6413 7.68319Z" fill="white" stroke="#565969"/>
</g>
<defs>
<clipPath id="clip0_222_2269">
<rect width="20" height="16" fill="white"/>
</clipPath>
</defs>
</svg>
