<svg width="72" height="64" viewBox="0 0 72 64" fill="none" xmlns="http://www.w3.org/2000/svg">
<g id="ship" clip-path="url(#clip0_224_2438)">
<path id="Primary" d="M24 4C24 1.7875 25.7875 0 28 0H44C46.2125 0 48 1.7875 48 4V8H54C57.3125 8 60 10.6875 60 14V30L65.55 31.85C68.4375 32.8125 69.2375 36.5375 66.9875 38.5875L54.3625 50.1625C52.3375 51.3375 50.025 52.05 48 52.05C45.55 52.05 42.9 51.0875 40.6 49.5125C37.8375 47.575 34.15 47.575 31.3875 49.5125C29.25 50.9875 26.6375 52.05 23.9875 52.05C21.9625 52.05 19.65 51.3375 17.625 50.1625L5 38.5875C2.75 36.525 3.55 32.8125 6.4375 31.85L12 30V14C12 10.6875 14.6875 8 18 8H24V4ZM20 27.3375L33.475 22.85C35.1125 22.3 36.8875 22.3 38.5375 22.85L52 27.3375V16H20V27.3375ZM38.3125 52.7375C41.125 54.675 44.5625 56 48 56C51.3625 56 54.925 54.65 57.675 52.7375C59.1625 51.675 61.1875 51.7625 62.575 52.95C64.375 54.4375 66.6375 55.575 68.9 56.1C71.05 56.6 72.3875 58.75 71.8875 60.9C71.3875 63.05 69.2375 64.3875 67.0875 63.8875C64.025 63.175 61.475 61.825 59.8125 60.7625C56.1875 62.7125 52.125 64 48 64C44.0125 64 40.425 62.7625 37.95 61.6375C37.225 61.3 36.5625 60.975 36 60.675C35.4375 60.975 34.7875 61.3125 34.05 61.6375C31.575 62.7625 27.9875 64 24 64C19.875 64 15.8125 62.7125 12.1875 60.775C10.5125 61.825 7.975 63.1875 4.9125 63.9C2.7625 64.4 0.612502 63.0625 0.112502 60.9125C-0.387498 58.7625 0.950002 56.6125 3.1 56.1125C5.3625 55.5875 7.625 54.45 9.425 52.9625C10.8125 51.7875 12.8375 51.7 14.325 52.75C17.0875 54.65 20.6375 56 24 56C27.4375 56 30.875 54.675 33.6875 52.7375C35.075 51.75 36.925 51.75 38.3125 52.7375Z" fill="white"/>
</g>
<defs>
<clipPath id="clip0_224_2438">
<rect width="72" height="64" fill="white"/>
</clipPath>
</defs>
</svg>
