<svg width="56" height="64" viewBox="0 0 56 64" fill="none" xmlns="http://www.w3.org/2000/svg">
<g id="train" clip-path="url(#clip0_224_2416)">
<path id="Primary" d="M12 0C5.375 0 0 5.375 0 12V44C0 50 4.4 54.9625 10.1375 55.8625L4.3875 61.6125C3.5125 62.4875 4.1375 64 5.375 64H10.3375C11.4 64 12.4125 63.575 13.1625 62.825L20 56H36L42.825 62.825C43.575 63.575 44.5875 64 45.65 64H50.6125C51.8625 64 52.4875 62.4875 51.6 61.6125L45.85 55.8625C51.6 54.975 55.9875 50 55.9875 44V12C55.9875 5.375 50.6125 0 43.9875 0H12ZM8 12C8 9.7875 9.7875 8 12 8H44C46.2125 8 48 9.7875 48 12V24C48 26.2125 46.2125 28 44 28H12C9.7875 28 8 26.2125 8 24V12ZM28 36C29.5913 36 31.1174 36.6321 32.2426 37.7574C33.3679 38.8826 34 40.4087 34 42C34 43.5913 33.3679 45.1174 32.2426 46.2426C31.1174 47.3679 29.5913 48 28 48C26.4087 48 24.8826 47.3679 23.7574 46.2426C22.6321 45.1174 22 43.5913 22 42C22 40.4087 22.6321 38.8826 23.7574 37.7574C24.8826 36.6321 26.4087 36 28 36Z" fill="white"/>
</g>
<defs>
<clipPath id="clip0_224_2416">
<rect width="56" height="64" fill="white"/>
</clipPath>
</defs>
</svg>
