<svg width="77" height="94" viewBox="0 0 77 94" fill="none" xmlns="http://www.w3.org/2000/svg">
<g id="truck-front">
<path id="Primary" d="M11 40.8438C11 35.4051 14.8457 31 19.5938 31H57.4062C62.1543 31 66 35.4051 66 40.8438V76.2812C66 79.5051 64.6465 82.3598 62.5625 84.1562V90.0625C62.5625 92.2404 61.0264 94 59.125 94H55.6875C53.7861 94 52.25 92.2404 52.25 90.0625V86.125H24.75V90.0625C24.75 92.2404 23.2139 94 21.3125 94H17.875C15.9736 94 14.4375 92.2404 14.4375 90.0625V84.1562C12.3535 82.3598 11 79.5051 11 76.2812V40.8438ZM24.9541 49.7277L23.0312 58.5625H53.9688L52.0459 49.7277C51.6592 47.9805 50.2842 46.75 48.7051 46.75H28.2949C26.7158 46.75 25.3408 47.9805 24.9648 49.7277H24.9541ZM24.75 70.375C24.75 69.3307 24.3878 68.3292 23.7432 67.5908C23.0985 66.8523 22.2242 66.4375 21.3125 66.4375C20.4008 66.4375 19.5265 66.8523 18.8818 67.5908C18.2372 68.3292 17.875 69.3307 17.875 70.375C17.875 71.4193 18.2372 72.4208 18.8818 73.1592C19.5265 73.8977 20.4008 74.3125 21.3125 74.3125C22.2242 74.3125 23.0985 73.8977 23.7432 73.1592C24.3878 72.4208 24.75 71.4193 24.75 70.375ZM55.6875 74.3125C56.5992 74.3125 57.4735 73.8977 58.1182 73.1592C58.7628 72.4208 59.125 71.4193 59.125 70.375C59.125 69.3307 58.7628 68.3292 58.1182 67.5908C57.4735 66.8523 56.5992 66.4375 55.6875 66.4375C54.7758 66.4375 53.9015 66.8523 53.2568 67.5908C52.6122 68.3292 52.25 69.3307 52.25 70.375C52.25 71.4193 52.6122 72.4208 53.2568 73.1592C53.9015 73.8977 54.7758 74.3125 55.6875 74.3125Z" fill="white"/>
</g>
</svg>
