<svg width="20" height="16" viewBox="0 0 20 16" fill="none" xmlns="http://www.w3.org/2000/svg">
<g id="truck-ramp-box" clip-path="url(#clip0_222_2264)">
<path id="Primary" d="M16.5 15C15.139 15 14.0332 13.9135 13.9997 12.5596L13.9681 11.284L12.737 11.6196L1.25273 14.75C1.25257 14.75 1.25242 14.75 1.25227 14.7501C1.25115 14.7504 1.25041 14.7505 1.25001 14.7505C1.24994 14.7505 1.24986 14.7505 1.24976 14.7504C1.24968 14.7504 1.24961 14.7503 1.24955 14.7503C1.24949 14.7501 1.24942 14.7499 1.24933 14.7497C1.24986 14.7495 1.25077 14.7491 1.25215 14.7487C1.25227 14.7487 1.2524 14.7487 1.25253 14.7486L11.2629 12.0211L12 11.8202V11.0562V2C12 1.44916 12.4492 1 13 1H19V12.5M16.5 15C17.8821 15 19 13.8821 19 12.5M16.5 15C15.837 15 15.2011 14.7366 14.7322 14.2678C14.2634 13.7989 14 13.163 14 12.5C14 11.837 14.2634 11.2011 14.7322 10.7322C15.2011 10.2634 15.837 10 16.5 10C17.163 10 17.7989 10.2634 18.2678 10.7322C18.7366 11.2011 19 11.837 19 12.5M16.5 15C17.163 15 17.7989 14.7366 18.2678 14.2678C18.7366 13.7989 19 13.163 19 12.5M6.42154 6.5138L6.03415 5.06716L6.51756 4.93797L6.51816 4.93781C6.51843 4.938 6.51864 4.93818 6.51878 4.9383C6.51884 4.93848 6.51892 4.93872 6.51901 4.93902C6.51903 4.93912 6.51906 4.93921 6.51909 4.93932L7.81219 9.76503C7.812 9.76531 7.81183 9.76551 7.8117 9.76565C7.81152 9.76572 7.81126 9.7658 7.81094 9.76589C7.81085 9.76592 7.81077 9.76594 7.81068 9.76596L2.98185 11.0622C2.98157 11.062 2.98136 11.0618 2.98122 11.0617C2.98116 11.0615 2.98109 11.0613 2.981 11.061C2.98097 11.0609 2.98094 11.0608 2.98091 11.0607L1.68784 6.23195L1.68781 6.23184C1.68794 6.23166 1.68806 6.23151 1.68816 6.23139C1.68821 6.23132 1.68826 6.23127 1.6883 6.23122C1.68846 6.23116 1.68867 6.2311 1.68894 6.23102C1.68906 6.23098 1.68919 6.23095 1.68932 6.23091L2.1707 6.10227L2.55903 7.55242L2.55972 7.55494C2.77447 8.3486 3.59441 8.82901 4.39735 8.61252C4.3978 8.6124 4.39825 8.61228 4.3987 8.61216L5.36254 8.35327L5.36432 8.35279C6.15784 8.13807 6.63822 7.31836 6.42201 6.51555C6.42185 6.51497 6.4217 6.51439 6.42154 6.5138Z" fill="white" stroke="#565969" stroke-width="2"/>
</g>
<defs>
<clipPath id="clip0_222_2264">
<rect width="20" height="16" fill="white"/>
</clipPath>
</defs>
</svg>
