<svg width="12" height="16" viewBox="0 0 12 16" fill="none" xmlns="http://www.w3.org/2000/svg">
<path id="Vector" d="M5.79495 15.3933C4.97274 14.2013 4.27515 13.2076 3.68316 12.3643C2.6286 10.8621 1.90918 9.83729 1.41746 9.01966C1.03989 8.39185 0.815431 7.91539 0.682055 7.46501C0.549816 7.01847 0.5 6.57355 0.5 6C0.5 2.96242 2.96242 0.5 6 0.5C9.03758 0.5 11.5 2.96242 11.5 6C11.5 6.57355 11.4502 7.01847 11.3179 7.46501C11.1846 7.91539 10.9601 8.39185 10.5825 9.01966C10.0908 9.83729 9.3714 10.8621 8.31683 12.3643C7.72493 13.2075 7.02743 14.2011 6.20536 15.3928C6.10615 15.5358 5.89356 15.5357 5.79449 15.3926L5.38338 15.6772L5.79495 15.3933ZM6 9C7.65686 9 9 7.65686 9 6C9 4.34314 7.65686 3 6 3C4.34314 3 3 4.34314 3 6C3 7.65686 4.34314 9 6 9Z" fill="white" stroke="#565969"/>
</svg>
