<svg width="16" height="16" viewBox="0 0 16 16" fill="none" xmlns="http://www.w3.org/2000/svg">
<path id="Vector" d="M15.2315 15.4187C15.1933 15.5841 15.1002 15.7315 14.9674 15.8371C14.8346 15.9427 14.6699 16.0001 14.5003 16C6.49699 16 0 9.51551 0 1.49974L4.08132 6.37827C5.22828 8.81089 7.18598 10.7686 9.61861 11.9156L11.1686 10.0218C11.2714 9.89587 11.4123 9.80677 11.5701 9.76788C11.728 9.72899 11.8941 9.74242 12.0436 9.80614M15.2315 15.4187L15.9815 12.1687C16.0202 11.9964 15.9977 11.8161 15.9178 11.6587C15.8379 11.5012 15.7056 11.3766 15.5437 11.3062M15.2315 15.4187L14.7443 15.3062M15.2315 15.4187L5.73113 4.15012L4.23194 0.652C4.20812 0.598062 4.16634 0.554032 4.1137 0.527422C4.06089 0.500731 4.00045 0.493236 3.94274 0.506208C3.94254 0.506253 3.94234 0.506298 3.94214 0.506344L0.69376 1.25597C0.693737 1.25598 0.693713 1.25598 0.69369 1.25599C0.638629 1.26872 0.589505 1.29973 0.55433 1.34396C0.519139 1.38822 0.499987 1.44309 0.5 1.49963L0.5 1.49974C0.5 9.23909 6.77285 15.5 14.5003 15.5H14.5006C14.5571 15.5 14.612 15.4809 14.6563 15.4457C14.7006 15.4105 14.7316 15.3614 14.7443 15.3063C14.7443 15.3063 14.7443 15.3063 14.7443 15.3062M15.5437 11.3062L12.0436 9.80614M15.5437 11.3062L15.3467 11.7657L15.3452 11.7651C15.4 11.7892 15.4448 11.8315 15.4719 11.885C15.499 11.9384 15.5068 11.9995 15.4939 12.058L15.4943 12.0563L15.9815 12.1687L15.4937 12.059M15.5437 11.3062L15.3443 11.7647L11.8476 10.2661M12.0436 9.80614L11.8476 10.2661M12.0436 9.80614L11.8467 10.2657L11.8472 10.2659C11.7975 10.2448 11.7422 10.2404 11.6898 10.2534C11.6372 10.2663 11.5902 10.296 11.5559 10.338L11.5556 10.3385L10.0055 12.2322L9.75835 12.5342L9.40537 12.3678C6.86774 11.1713 4.82554 9.12913 3.62907 6.5915L3.46264 6.23852L3.76463 5.99135L5.65842 4.44132L5.65961 4.44034C5.70146 4.40631 5.73107 4.35957 5.74397 4.30721C5.75687 4.25486 5.75237 4.19974 5.73116 4.15018L11.8476 10.2661M11.8476 10.2661L15.4937 12.059M14.7443 15.3062L15.4937 12.059M14.7443 15.3062L15.4937 12.059" fill="white" stroke="#565969"/>
</svg>
